<svg width="20" height="20" viewBox="0 0 20 20" fill="none" xmlns="http://www.w3.org/2000/svg">
<path d="M4.16669 7.5V13.3333" stroke="#595959" stroke-width="1.5" stroke-linecap="round" stroke-linejoin="round"/>
<path d="M4.37502 7.08333C5.87079 7.08333 7.08335 5.87077 7.08335 4.375C7.08335 2.87923 5.87079 1.66667 4.37502 1.66667C2.87925 1.66667 1.66669 2.87923 1.66669 4.375C1.66669 5.87077 2.87925 7.08333 4.37502 7.08333Z" stroke="#595959" stroke-width="1.5" stroke-linecap="round" stroke-linejoin="round"/>
<path d="M4.16669 18.3333C5.5474 18.3333 6.66669 17.214 6.66669 15.8333C6.66669 14.4526 5.5474 13.3333 4.16669 13.3333C2.78598 13.3333 1.66669 14.4526 1.66669 15.8333C1.66669 17.214 2.78598 18.3333 4.16669 18.3333Z" stroke="#595959" stroke-width="1.5" stroke-linecap="round" stroke-linejoin="round"/>
<path d="M15.8333 18.3333C17.214 18.3333 18.3333 17.214 18.3333 15.8333C18.3333 14.4526 17.214 13.3333 15.8333 13.3333C14.4526 13.3333 13.3333 14.4526 13.3333 15.8333C13.3333 17.214 14.4526 18.3333 15.8333 18.3333Z" stroke="#595959" stroke-width="1.5" stroke-linecap="round" stroke-linejoin="round"/>
<path d="M4.27502 7.5C4.65002 8.95833 5.98336 10.0417 7.55836 10.0333L10.4167 10.025C12.6 10.0167 14.4584 11.4167 15.1417 13.3667" stroke="#595959" stroke-width="1.5" stroke-linecap="round" stroke-linejoin="round"/>
</svg>
