<svg width="24" height="24" viewBox="0 0 24 24" fill="none" xmlns="http://www.w3.org/2000/svg">
<path d="M8.75999 1.72999L8.88999 1.72999C13.33 1.72999 15.47 3.47999 15.84 7.39999C15.88 7.80999 15.58 8.17999 15.16 8.21999C14.76 8.25999 14.38 7.94999 14.34 7.53999C14.05 4.39999 12.57 3.22999 8.87999 3.22999L8.74999 3.22999C4.67999 3.22999 3.23999 4.66999 3.23999 8.73999L3.23999 15.26C3.23998 19.33 4.67999 20.77 8.74998 20.77L8.87998 20.77C12.59 20.77 14.07 19.58 14.34 16.38C14.39 15.97 14.74 15.66 15.16 15.7C15.58 15.73 15.88 16.1 15.85 16.51C15.51 20.49 13.36 22.27 8.88999 22.27L8.75998 22.27C3.84999 22.27 1.74998 20.17 1.74999 15.26L1.74999 8.73999C1.74999 3.82999 3.84999 1.72999 8.75999 1.72999Z" fill="#595959"/>
<path d="M9 11.25L20.38 11.25C20.79 11.25 21.13 11.59 21.13 12C21.13 12.41 20.79 12.75 20.38 12.75L9 12.75C8.59 12.75 8.25 12.41 8.25 12C8.25 11.59 8.59001 11.25 9 11.25Z" fill="#595959"/>
<path d="M18.15 7.9C18.34 7.9 18.53 7.97 18.68 8.12L22.03 11.47C22.32 11.76 22.32 12.24 22.03 12.53L18.68 15.88C18.39 16.17 17.91 16.17 17.62 15.88C17.33 15.59 17.33 15.11 17.62 14.82L20.44 12L17.62 9.18C17.33 8.89 17.33 8.41 17.62 8.12C17.76 7.97 17.96 7.9 18.15 7.9Z" fill="#595959"/>
</svg>
